<svg width="64" height="64" viewBox="0 0 64 64" fill="none" xmlns="http://www.w3.org/2000/svg">
  <rect width="64" height="64" rx="16" fill="#2B3445"/>
  <circle cx="32" cy="32" r="20" fill="#E8EDF6" fill-opacity="0.14"/>
  <circle cx="32" cy="32" r="15.5" stroke="#E8EDF6" stroke-width="2.5" stroke-opacity="0.9"/>
  <path
    d="M36.75 22.5L27.6 30.65C26.95 31.23 27.23 32.3 28.08 32.5L32.9 33.63C33.25 33.71 33.55 33.95 33.69 34.28L35.61 38.82C35.94 39.6 37.02 39.74 37.55 39.07L43.75 31.24C44.28 30.57 43.9 29.57 43.06 29.44L38.15 28.7C37.79 28.65 37.46 28.44 37.28 28.12L35.01 23.98C34.62 23.28 35.15 22.38 35.95 22.42L36.75 22.5Z"
    fill="#F4E5A6"
  />
  <path
    d="M25 40.5C27.08 38.74 28.86 37.96 30.34 38.16C31.81 38.36 33.23 39.45 34.58 41.44C35.19 42.33 36.42 42.55 37.31 41.95C38.2 41.35 38.43 40.12 37.82 39.23C35.92 36.42 33.62 34.76 30.87 34.39C28.12 34.01 25.25 35.15 22.42 37.55"
    stroke="#E8EDF6"
    stroke-width="2.5"
    stroke-linecap="round"
  />
</svg>
